<svg viewBox="0 0 50 28" version="1.1" xmlns="http://www.w3.org/2000/svg" xmlns:xlink="http://www.w3.org/1999/xlink"
     class="logo">
    <g stroke="none" stroke-width="1" fill="none" fill-rule="evenodd">
        <g transform="translate(-720.000000, -34.000000)" fill="#FFFFFE" class="logo__shape">
            <g transform="translate(720.000000, 34.000000)">
                <path d="M13.8734848,0.415578947 C7.15530303,0.415578947 1.34848485,4.56178947 0.00454545455,11.228 L6.46439394,11.228 C7.62878788,7.76410526 10.8356061,6.16368421 13.8734848,6.16368421 C17.6340909,6.16368421 21.7022727,8.66452632 21.7022727,14.1893684 C21.7022727,19.7127368 17.6340909,22.1767368 13.8734848,22.1767368 C10.8477273,22.1767368 7.65454545,20.6124211 6.4780303,17.1875789 L0,17.1875789 C1.33484848,23.8427368 7.14621212,28 13.8734848,28 C21.5098485,28 27.9962121,22.5878947 27.9962121,14.2262105 C27.9962121,5.82768421 21.5098485,0.415578947 13.8734848,0.415578947"></path>
                <polygon
                        points="33.0007576 6.68463158 49.7113636 6.68463158 49.7113636 0.725052632 33.0007576 0.725052632"></polygon>
                <polygon
                        points="33.0007576 27.6912632 49.7113636 27.6912632 49.7113636 21.7309474 33.0007576 21.7309474"></polygon>
                <polygon
                        points="33.0007576 17.1278947 49.7113636 17.1278947 49.7113636 11.1683158 33.0007576 11.1683158"></polygon>
            </g>
        </g>
    </g>
</svg>